<svg xmlns="http://www.w3.org/2000/svg" width="40" height="40" viewBox="0 0 24 24"><g fill="none"><path fill="#0B76FF" d="M12 14.572h3.557l-3.557-6V4.714l7.286 12H12z"></path><path fill="#24C1FF" d="M12 14.572H8.426l3.574-6V4.714l-7.286 12H12z"></path><path fill="#39FFF2" d="M12 10.286v3.428H9.857z"></path><path fill="#00E2C2" d="M12 10.286v3.428h2.143z"></path><path fill="url(#tokenBrandedBeam0)" d="m3.429 8.469l8.563 3.96v.415l-8.563-1.872z"></path><path fill="url(#tokenBrandedBeam1)" d="m20.572 7.316l-8.58 5.117v.141l8.58-3.604z"></path><path fill="url(#tokenBrandedBeam2)" d="m20.572 12.274l-8.58.575v-.138l8.58-2.09z"></path><path fill="url(#tokenBrandedBeam3)" d="m20.572 8.97l-8.58 3.6v.141l8.58-2.09z"></path><defs><linearGradient id="tokenBrandedBeam0" x1="3.437" x2="12.824" y1="10.744" y2="10.744" gradientUnits="userSpaceOnUse"><stop stop-color="#fff" stop-opacity="0"></stop><stop offset="1" stop-color="#fff"></stop></linearGradient><linearGradient id="tokenBrandedBeam1" x1="20.469" x2="9.568" y1="10.69" y2="10.69" gradientUnits="userSpaceOnUse"><stop stop-color="#FD76FD" stop-opacity="0"></stop><stop offset="1" stop-color="#FF51FF"></stop></linearGradient><linearGradient id="tokenBrandedBeam2" x1="20.649" x2="11.82" y1="10.737" y2="10.737" gradientUnits="userSpaceOnUse"><stop stop-color="#9D6EFF" stop-opacity="0"></stop><stop offset="1" stop-color="#A18CFF"></stop></linearGradient><linearGradient id="tokenBrandedBeam3" x1="20.563" x2="15.514" y1="10.847" y2="10.847" gradientUnits="userSpaceOnUse"><stop stop-color="#AE60D6" stop-opacity="0"></stop><stop offset="1" stop-color="#AB38E6"></stop></linearGradient></defs></g></svg>